<svg xmlns="http://www.w3.org/2000/svg" viewBox="0 0 431.43 90.21"><defs><style>.logo_colorless_v3_svg__cls-1{fill:none}.logo_colorless_v3_svg__cls-2{fill:currentColor}</style></defs><g id="logo_colorless_v3_svg__Ebene_2" data-name="Ebene 2"><g id="logo_colorless_v3_svg__Ebene_1-2" data-name="Ebene 1"><path class="logo_colorless_v3_svg__cls-1" d="M234.25 32.61q-5.7 0-8.78 3.85t-3.09 11.16q0 7.4 3 11.2t8.74 3.8q5.79 0 8.83-3.8t3-11.2q0-7.32-3-11.16t-8.7-3.85zM183.24 31.34q-5.7 0-8.79 3.84t-3.08 11.16q0 7.41 3 11.2t8.73 3.8q5.79 0 8.83-3.8t3-11.2q0-7.31-3-11.16t-8.69-3.84z"/><path class="logo_colorless_v3_svg__cls-2" d="M102.32 43.11l-7.89-1.8a9.78 9.78 0 0 1-4.43-1.9 4 4 0 0 1-1.38-3.13 4.5 4.5 0 0 1 2.19-4 11 11 0 0 1 6.07-1.43q7.21 0 14.44 5.23l3.34-8.08a26.52 26.52 0 0 0-8.12-4.27A30.33 30.33 0 0 0 97 22.22 25.71 25.71 0 0 0 87 24a15.54 15.54 0 0 0-6.74 5.08 12.38 12.38 0 0 0-2.42 7.55A11.48 11.48 0 0 0 81 45q3.14 3.23 9.59 4.65l7.6 1.71a15.29 15.29 0 0 1 5.27 2.09 3.85 3.85 0 0 1 1.47 3.23 4.22 4.22 0 0 1-2.14 3.8 11.93 11.93 0 0 1-6.22 1.33 28 28 0 0 1-17-5.42l-3.37 8.28A25.85 25.85 0 0 0 85 69a39.88 39.88 0 0 0 11.34 1.52q8.92 0 14.15-3.8a12 12 0 0 0 5.21-10.22 11.71 11.71 0 0 0-3.22-8.59q-3.24-3.28-10.16-4.8zM142.88 31.53a18.43 18.43 0 0 1 6.51 1.23 22.85 22.85 0 0 1 6.22 3.61L159 28a20.31 20.31 0 0 0-7.55-4.22 30.18 30.18 0 0 0-9.64-1.57 26 26 0 0 0-12.72 3 20.93 20.93 0 0 0-8.5 8.59 26.51 26.51 0 0 0-3 12.78 26.67 26.67 0 0 0 2.85 12.62 19.88 19.88 0 0 0 8.21 8.36 26 26 0 0 0 12.68 2.94 31.46 31.46 0 0 0 9.91-1.5 21.68 21.68 0 0 0 7.76-4.33l-3.42-8.27a22.34 22.34 0 0 1-6.19 3.6 18.22 18.22 0 0 1-6.51 1.24q-6.16 0-9.59-3.85t-3.41-11q0-7.21 3.41-11.07t9.59-3.79zM195.72 25.17a27.89 27.89 0 0 0-25 0 20.38 20.38 0 0 0-8.31 8.4 26.55 26.55 0 0 0-2.94 12.77 26.8 26.8 0 0 0 2.94 12.82 20.33 20.33 0 0 0 8.31 8.45 28 28 0 0 0 25 0 20 20 0 0 0 8.28-8.45 27.15 27.15 0 0 0 2.9-12.82 26.88 26.88 0 0 0-2.9-12.77 20.09 20.09 0 0 0-8.28-8.4zM192 57.54q-3 3.81-8.83 3.8t-8.73-3.8q-3-3.8-3-11.2t3.08-11.16q3.09-3.84 8.79-3.84t8.69 3.84q3 3.85 3 11.16t-3 11.2zM322.69 31.53v-8.17h-11.3v46.43h11.87V44.73c0-7.16 3.07-11 11.25-12.14l7.49-.49.2-8.43a32.08 32.08 0 0 0-10.2 0c-4.73.95-7.54 3.76-9.31 7.86zM366.06 52.32v-20h12.25v-8.96h-12.25V9.5h-11.87v13.86h-8.92v8.93h8.92v20.22q0 8.93 4.66 13.44t14.43 4.51c1.58 0 3.32-.1 5.22-.29l.57-8.83a35.22 35.22 0 0 1-4.37.29q-8.64 0-8.64-9.31zM419.75 23.46l-13.48 32.76-13.1-32.76h-12.54L400 67.99l-8.45 18.89h11.97l27.91-63.42h-11.68zM255 34.84a20.21 20.21 0 0 0-8.26-8.4 28 28 0 0 0-24.78-.1v-2h-11.48v63.09H222V69a27.92 27.92 0 0 0 24.78-.1 20 20 0 0 0 8.22-8.47 27.13 27.13 0 0 0 2.89-12.81A26.92 26.92 0 0 0 255 34.84zm-12 24q-3 3.8-8.83 3.8t-8.74-3.8q-3-3.8-3-11.2t3.09-11.16q3.08-3.85 8.78-3.85t8.7 3.83q3 3.84 3 11.16t-3 11.2zM302.38 51a22.36 22.36 0 0 1-12.3 8.41q-6 1.59-10-.57t-6.24-8.26l30.54-8.18-.86-3.21q-2.81-10.46-9.76-15t-16.23-2a22.72 22.72 0 0 0-10.54 6 20.74 20.74 0 0 0-5.54 10.33 27.11 27.11 0 0 0 .55 12.89q2.89 10.83 10.94 15.35T292 68.34a31.29 31.29 0 0 0 9.07-4.1A24.89 24.89 0 0 0 307.8 58zm-29-15.92a10.07 10.07 0 0 1 6.6-4.92 9.43 9.43 0 0 1 7.93 1 12.17 12.17 0 0 1 4.36 5.84L272 42.45a13.45 13.45 0 0 1 1.39-7.36zM15.86 90.21a26.12 26.12 0 0 1-13.1-3.53 5.51 5.51 0 0 1 5.5-9.55c6.88 4 13.76 1.67 17.91-1.8S33.8 65.48 31.1 58a15.91 15.91 0 0 0-7-8.34 5.51 5.51 0 1 1 5.51-9.54 27 27 0 0 1 11.85 14.14 26.5 26.5 0 0 1-8.22 29.52 27.06 27.06 0 0 1-17.38 6.43z"/><path class="logo_colorless_v3_svg__cls-2" d="M16.83 70a5.52 5.52 0 0 1-2.75-.74A26.48 26.48 0 0 1 1.35 41.41 26.48 26.48 0 0 1 22.8 19.53 26.91 26.91 0 0 1 41 22.72a5.51 5.51 0 0 1-5.51 9.54 15.84 15.84 0 0 0-10.71-1.88C16.92 31.78 13.14 38 12.2 43.31s.52 12.44 7.39 16.41A5.51 5.51 0 0 1 16.83 70z"/><path class="logo_colorless_v3_svg__cls-2" d="M49.9 50.88a5.51 5.51 0 0 1-2.76-10.28c6.87-4 8.32-11.08 7.39-16.41S49.81 12.66 42 11.26a15.86 15.86 0 0 0-10.7 1.88 5.51 5.51 0 1 1-5.52-9.54A26.81 26.81 0 0 1 43.93.42a26.47 26.47 0 0 1 21.45 21.87 26.46 26.46 0 0 1-12.73 27.85 5.39 5.39 0 0 1-2.75.74z"/></g></g></svg>